<mxfile host="app.diagrams.net" modified="2023-11-10T09:36:34.521Z" agent="Mozilla/5.0 (X11; Linux x86_64; Chromium GOST) AppleWebKit/537.36 (KHTML, like Gecko) Chrome/110.0.0.0 Safari/537.36" etag="swlEecKqs7swjWyDFk4v" version="22.1.0" type="github" pages="2">
  <diagram name="Themes" id="SAb5eQocV6z7SgWIaTcl">
    <mxGraphModel dx="3268" dy="2310" grid="0" gridSize="10" guides="1" tooltips="1" connect="1" arrows="1" fold="1" page="0" pageScale="1" pageWidth="827" pageHeight="1169" math="0" shadow="0">
      <root>
        <mxCell id="0" />
        <mxCell id="1" parent="0" />
        <mxCell id="2iayjj1OqmgtFofdx8OK-1" value="ThemeSwitcher.tsx" style="text;html=1;strokeColor=none;fillColor=#f8cecc;align=center;verticalAlign=middle;whiteSpace=wrap;rounded=1;" parent="1" vertex="1">
          <mxGeometry x="13" y="423" width="124" height="30" as="geometry" />
        </mxCell>
        <mxCell id="2iayjj1OqmgtFofdx8OK-5" style="edgeStyle=orthogonalEdgeStyle;rounded=0;orthogonalLoop=1;jettySize=auto;html=1;entryX=0;entryY=0.5;entryDx=0;entryDy=0;curved=1;dashed=1;dashPattern=8 8;fillColor=#dae8fc;strokeColor=#6c8ebf;" parent="1" source="2iayjj1OqmgtFofdx8OK-2" target="2iayjj1OqmgtFofdx8OK-4" edge="1">
          <mxGeometry relative="1" as="geometry" />
        </mxCell>
        <mxCell id="2iayjj1OqmgtFofdx8OK-2" value="toggleTheme()" style="text;html=1;align=center;verticalAlign=middle;whiteSpace=wrap;rounded=1;strokeColor=default;" parent="1" vertex="1">
          <mxGeometry x="13" y="481" width="124" height="30" as="geometry" />
        </mxCell>
        <mxCell id="2iayjj1OqmgtFofdx8OK-3" value="useTheme.ts" style="text;html=1;strokeColor=none;fillColor=#f8cecc;align=center;verticalAlign=middle;whiteSpace=wrap;rounded=1;" parent="1" vertex="1">
          <mxGeometry x="320" y="423" width="124" height="30" as="geometry" />
        </mxCell>
        <mxCell id="2iayjj1OqmgtFofdx8OK-7" style="edgeStyle=orthogonalEdgeStyle;shape=connector;curved=1;rounded=0;orthogonalLoop=1;jettySize=auto;html=1;entryX=0.5;entryY=0;entryDx=0;entryDy=0;dashed=1;dashPattern=8 8;labelBackgroundColor=default;strokeColor=#6c8ebf;align=center;verticalAlign=middle;fontFamily=Helvetica;fontSize=11;fontColor=default;endArrow=classic;fillColor=#dae8fc;" parent="1" source="2iayjj1OqmgtFofdx8OK-4" target="2iayjj1OqmgtFofdx8OK-6" edge="1">
          <mxGeometry relative="1" as="geometry" />
        </mxCell>
        <mxCell id="2iayjj1OqmgtFofdx8OK-4" value="&lt;span style=&quot;white-space: pre;&quot;&gt;&#x9;&lt;/span&gt;const &lt;b&gt;newTheme&lt;/b&gt; = theme === Theme.DARK &lt;br&gt;&lt;span style=&quot;white-space: pre;&quot;&gt;&#x9;&lt;/span&gt;&lt;span style=&quot;white-space: pre;&quot;&gt;&#x9;&lt;/span&gt;&lt;span style=&quot;white-space: pre;&quot;&gt;&#x9;&lt;/span&gt;&lt;span style=&quot;white-space: pre;&quot;&gt;&#x9;&lt;/span&gt;&lt;span style=&quot;white-space: pre;&quot;&gt;&#x9;&lt;/span&gt;&lt;span style=&quot;white-space: pre;&quot;&gt;&#x9;&lt;/span&gt;&lt;span style=&quot;white-space: pre;&quot;&gt;&#x9;&lt;/span&gt;&lt;span style=&quot;white-space: pre;&quot;&gt;&#x9;&lt;span style=&quot;white-space: pre;&quot;&gt;&#x9;&lt;/span&gt;&lt;/span&gt;? Theme.LIGHT &lt;br&gt;&lt;span style=&quot;white-space: pre;&quot;&gt;&#x9;&lt;/span&gt;&lt;span style=&quot;white-space: pre;&quot;&gt;&#x9;&lt;/span&gt;&lt;span style=&quot;white-space: pre;&quot;&gt;&#x9;&lt;/span&gt;&lt;span style=&quot;white-space: pre;&quot;&gt;&#x9;&lt;/span&gt;&lt;span style=&quot;white-space: pre;&quot;&gt;&#x9;&lt;/span&gt;&lt;span style=&quot;white-space: pre;&quot;&gt;&#x9;&lt;/span&gt;&lt;span style=&quot;white-space: pre;&quot;&gt;&#x9;&lt;/span&gt;&lt;span style=&quot;white-space: pre;&quot;&gt;&#x9;&lt;/span&gt;&lt;span style=&quot;white-space: pre;&quot;&gt;&#x9;&lt;/span&gt;: Theme.DARK" style="text;html=1;align=left;verticalAlign=middle;whiteSpace=wrap;rounded=1;strokeColor=default;" parent="1" vertex="1">
          <mxGeometry x="204" y="470" width="356" height="52" as="geometry" />
        </mxCell>
        <mxCell id="2iayjj1OqmgtFofdx8OK-9" style="edgeStyle=orthogonalEdgeStyle;shape=connector;curved=1;rounded=0;orthogonalLoop=1;jettySize=auto;html=1;entryX=0.5;entryY=0;entryDx=0;entryDy=0;dashed=1;dashPattern=8 8;labelBackgroundColor=default;strokeColor=#6c8ebf;align=center;verticalAlign=middle;fontFamily=Helvetica;fontSize=11;fontColor=default;endArrow=classic;fillColor=#dae8fc;" parent="1" source="2iayjj1OqmgtFofdx8OK-6" target="2iayjj1OqmgtFofdx8OK-8" edge="1">
          <mxGeometry relative="1" as="geometry" />
        </mxCell>
        <mxCell id="2iayjj1OqmgtFofdx8OK-13" style="edgeStyle=orthogonalEdgeStyle;shape=connector;curved=1;rounded=0;orthogonalLoop=1;jettySize=auto;html=1;entryX=0;entryY=0.5;entryDx=0;entryDy=0;dashed=1;dashPattern=8 8;labelBackgroundColor=default;strokeColor=#6c8ebf;align=center;verticalAlign=middle;fontFamily=Helvetica;fontSize=11;fontColor=default;endArrow=classic;fillColor=#dae8fc;" parent="1" source="2iayjj1OqmgtFofdx8OK-6" target="2iayjj1OqmgtFofdx8OK-12" edge="1">
          <mxGeometry relative="1" as="geometry" />
        </mxCell>
        <mxCell id="2iayjj1OqmgtFofdx8OK-14" value="&lt;b style=&quot;border-color: var(--border-color); font-size: 12px;&quot;&gt;newTheme&lt;/b&gt;" style="edgeLabel;html=1;align=center;verticalAlign=middle;resizable=0;points=[];fontSize=11;fontFamily=Helvetica;fontColor=default;" parent="2iayjj1OqmgtFofdx8OK-13" vertex="1" connectable="0">
          <mxGeometry x="0.1447" y="2" relative="1" as="geometry">
            <mxPoint y="2" as="offset" />
          </mxGeometry>
        </mxCell>
        <mxCell id="2iayjj1OqmgtFofdx8OK-6" value="setTheme(&lt;b&gt;newTheme&lt;/b&gt;)" style="text;html=1;align=center;verticalAlign=middle;whiteSpace=wrap;rounded=1;strokeColor=default;" parent="1" vertex="1">
          <mxGeometry x="290" y="552" width="184" height="30" as="geometry" />
        </mxCell>
        <mxCell id="2iayjj1OqmgtFofdx8OK-8" value="&lt;b&gt;localStorage&lt;/b&gt;.setItem(LOCAL_STORAGE_THEME_KEY, newTheme)" style="text;html=1;align=center;verticalAlign=middle;whiteSpace=wrap;rounded=1;strokeColor=default;" parent="1" vertex="1">
          <mxGeometry x="191" y="613" width="382" height="30" as="geometry" />
        </mxCell>
        <mxCell id="2iayjj1OqmgtFofdx8OK-10" value="Смена темы" style="text;html=1;strokeColor=none;fillColor=#d5e8d4;align=center;verticalAlign=middle;whiteSpace=wrap;rounded=0;" parent="1" vertex="1">
          <mxGeometry x="23" y="370" width="98" height="30" as="geometry" />
        </mxCell>
        <mxCell id="2iayjj1OqmgtFofdx8OK-11" value="App.tsx" style="text;html=1;strokeColor=none;fillColor=#f8cecc;align=center;verticalAlign=middle;whiteSpace=wrap;rounded=1;" parent="1" vertex="1">
          <mxGeometry x="753" y="509" width="124" height="30" as="geometry" />
        </mxCell>
        <mxCell id="2iayjj1OqmgtFofdx8OK-16" style="edgeStyle=orthogonalEdgeStyle;shape=connector;curved=1;rounded=0;orthogonalLoop=1;jettySize=auto;html=1;entryX=0.5;entryY=0;entryDx=0;entryDy=0;dashed=1;dashPattern=8 8;labelBackgroundColor=default;strokeColor=#6c8ebf;align=center;verticalAlign=middle;fontFamily=Helvetica;fontSize=11;fontColor=default;endArrow=classic;fillColor=#dae8fc;" parent="1" source="2iayjj1OqmgtFofdx8OK-12" target="2iayjj1OqmgtFofdx8OK-15" edge="1">
          <mxGeometry relative="1" as="geometry" />
        </mxCell>
        <mxCell id="2iayjj1OqmgtFofdx8OK-12" value="const { theme } = useTheme()" style="text;html=1;align=center;verticalAlign=middle;whiteSpace=wrap;rounded=1;strokeColor=default;" parent="1" vertex="1">
          <mxGeometry x="723" y="552" width="184" height="30" as="geometry" />
        </mxCell>
        <mxCell id="2iayjj1OqmgtFofdx8OK-19" style="edgeStyle=orthogonalEdgeStyle;shape=connector;curved=1;rounded=0;orthogonalLoop=1;jettySize=auto;html=1;entryX=0;entryY=0.5;entryDx=0;entryDy=0;dashed=1;dashPattern=8 8;labelBackgroundColor=default;strokeColor=#6c8ebf;align=center;verticalAlign=middle;fontFamily=Helvetica;fontSize=11;fontColor=default;endArrow=classic;fillColor=#dae8fc;" parent="1" source="2iayjj1OqmgtFofdx8OK-15" target="2iayjj1OqmgtFofdx8OK-18" edge="1">
          <mxGeometry relative="1" as="geometry" />
        </mxCell>
        <mxCell id="2iayjj1OqmgtFofdx8OK-20" value="theme = Theme.[smt]&amp;nbsp;" style="edgeLabel;html=1;align=center;verticalAlign=middle;resizable=0;points=[];fontSize=11;fontFamily=Helvetica;fontColor=default;" parent="2iayjj1OqmgtFofdx8OK-19" vertex="1" connectable="0">
          <mxGeometry x="-0.0973" y="-1" relative="1" as="geometry">
            <mxPoint as="offset" />
          </mxGeometry>
        </mxCell>
        <mxCell id="2iayjj1OqmgtFofdx8OK-15" value="&amp;lt;div className={classNames(&#39;app&#39;, {}, [theme])}&amp;gt;" style="text;html=1;align=center;verticalAlign=middle;whiteSpace=wrap;rounded=1;strokeColor=default;" parent="1" vertex="1">
          <mxGeometry x="673" y="620" width="284" height="30" as="geometry" />
        </mxCell>
        <mxCell id="2iayjj1OqmgtFofdx8OK-17" value="classNames.ts" style="text;html=1;strokeColor=none;fillColor=#f8cecc;align=center;verticalAlign=middle;whiteSpace=wrap;rounded=1;" parent="1" vertex="1">
          <mxGeometry x="1197" y="575" width="124" height="30" as="geometry" />
        </mxCell>
        <mxCell id="2iayjj1OqmgtFofdx8OK-32" style="edgeStyle=orthogonalEdgeStyle;shape=connector;curved=1;rounded=0;orthogonalLoop=1;jettySize=auto;html=1;entryX=0;entryY=0.25;entryDx=0;entryDy=0;dashed=1;dashPattern=8 8;labelBackgroundColor=default;strokeColor=#6c8ebf;align=center;verticalAlign=middle;fontFamily=Helvetica;fontSize=11;fontColor=default;endArrow=classic;fillColor=#dae8fc;" parent="1" source="2iayjj1OqmgtFofdx8OK-18" target="2iayjj1OqmgtFofdx8OK-31" edge="1">
          <mxGeometry relative="1" as="geometry" />
        </mxCell>
        <mxCell id="2iayjj1OqmgtFofdx8OK-33" value="&#39;app dark&#39;" style="edgeLabel;html=1;align=center;verticalAlign=middle;resizable=0;points=[];fontSize=11;fontFamily=Helvetica;fontColor=default;" parent="2iayjj1OqmgtFofdx8OK-32" vertex="1" connectable="0">
          <mxGeometry x="-0.4405" relative="1" as="geometry">
            <mxPoint x="16" as="offset" />
          </mxGeometry>
        </mxCell>
        <mxCell id="2iayjj1OqmgtFofdx8OK-18" value="className={classNames(&#39;app&#39;, {}, [theme])" style="text;html=1;align=center;verticalAlign=middle;whiteSpace=wrap;rounded=1;strokeColor=default;" parent="1" vertex="1">
          <mxGeometry x="1127" y="620" width="264" height="30" as="geometry" />
        </mxCell>
        <mxCell id="2iayjj1OqmgtFofdx8OK-24" value="dark.scss" style="text;html=1;strokeColor=none;fillColor=#f8cecc;align=center;verticalAlign=middle;whiteSpace=wrap;rounded=1;" parent="1" vertex="1">
          <mxGeometry x="1915" y="388" width="124" height="30" as="geometry" />
        </mxCell>
        <mxCell id="2iayjj1OqmgtFofdx8OK-25" value="&lt;span style=&quot;white-space: pre;&quot;&gt;&#x9;&lt;/span&gt;.app.dark { &lt;br&gt;&lt;span style=&quot;white-space: pre;&quot;&gt;&#x9;&lt;/span&gt;&lt;span style=&quot;white-space: pre;&quot;&gt;&#x9;&lt;/span&gt;--bg-color: #090949; &lt;br&gt;&lt;span style=&quot;white-space: pre;&quot;&gt;&#x9;&lt;/span&gt;&lt;span style=&quot;white-space: pre;&quot;&gt;&#x9;&lt;/span&gt;--inverted-bg-color: #e8e8ea; &lt;br&gt;&lt;span style=&quot;white-space: pre;&quot;&gt;&#x9;&lt;/span&gt;&lt;span style=&quot;white-space: pre;&quot;&gt;&#x9;&lt;/span&gt;--primary-color: #04ff04; &lt;br&gt;&lt;span style=&quot;white-space: pre;&quot;&gt;&#x9;&lt;/span&gt;&lt;span style=&quot;white-space: pre;&quot;&gt;&#x9;&lt;/span&gt;--secondary-color: #049604; &lt;br&gt;&lt;span style=&quot;white-space: pre;&quot;&gt;&#x9;&lt;/span&gt;&lt;span style=&quot;white-space: pre;&quot;&gt;&#x9;&lt;/span&gt;--inverted-primary-color: #0232c2; &lt;br&gt;&lt;span style=&quot;white-space: pre;&quot;&gt;&#x9;&lt;/span&gt;&lt;span style=&quot;white-space: pre;&quot;&gt;&#x9;&lt;/span&gt;--inverted-secondary-color: #0452ff; &lt;br&gt;&lt;span style=&quot;white-space: pre;&quot;&gt;&#x9;&lt;/span&gt;}" style="text;html=1;strokeColor=none;fillColor=#fff2cc;align=left;verticalAlign=middle;whiteSpace=wrap;rounded=0;" parent="1" vertex="1">
          <mxGeometry x="1845" y="433" width="264" height="141" as="geometry" />
        </mxCell>
        <mxCell id="2iayjj1OqmgtFofdx8OK-29" value="index.scss" style="text;html=1;strokeColor=none;fillColor=#f8cecc;align=center;verticalAlign=middle;whiteSpace=wrap;rounded=1;" parent="1" vertex="1">
          <mxGeometry x="1558" y="563" width="124" height="30" as="geometry" />
        </mxCell>
        <mxCell id="2iayjj1OqmgtFofdx8OK-34" style="edgeStyle=orthogonalEdgeStyle;shape=connector;curved=1;rounded=0;orthogonalLoop=1;jettySize=auto;html=1;entryX=0;entryY=0.5;entryDx=0;entryDy=0;dashed=1;dashPattern=8 8;labelBackgroundColor=default;strokeColor=#6c8ebf;align=center;verticalAlign=middle;fontFamily=Helvetica;fontSize=11;fontColor=default;endArrow=classic;fillColor=#dae8fc;" parent="1" source="2iayjj1OqmgtFofdx8OK-31" target="2iayjj1OqmgtFofdx8OK-25" edge="1">
          <mxGeometry relative="1" as="geometry" />
        </mxCell>
        <mxCell id="2iayjj1OqmgtFofdx8OK-37" style="edgeStyle=orthogonalEdgeStyle;shape=connector;curved=1;rounded=0;orthogonalLoop=1;jettySize=auto;html=1;entryX=0;entryY=0.5;entryDx=0;entryDy=0;dashed=1;dashPattern=8 8;labelBackgroundColor=default;strokeColor=#6c8ebf;align=center;verticalAlign=middle;fontFamily=Helvetica;fontSize=11;fontColor=default;endArrow=classic;fillColor=#dae8fc;" parent="1" source="2iayjj1OqmgtFofdx8OK-31" target="2iayjj1OqmgtFofdx8OK-35" edge="1">
          <mxGeometry relative="1" as="geometry" />
        </mxCell>
        <mxCell id="2iayjj1OqmgtFofdx8OK-31" value="&lt;span style=&quot;white-space: pre;&quot;&gt;&#x9;&lt;/span&gt;.app { &lt;br&gt;&lt;blockquote style=&quot;margin: 0 0 0 40px; border: none; padding: 0px;&quot;&gt;&lt;span style=&quot;&quot;&gt;&lt;span style=&quot;white-space: pre;&quot;&gt;&amp;nbsp;&amp;nbsp;&amp;nbsp;&amp;nbsp;&lt;/span&gt;&lt;/span&gt;&lt;span style=&quot;&quot;&gt;&lt;span style=&quot;white-space: pre;&quot;&gt;&amp;nbsp;&amp;nbsp;&amp;nbsp;&amp;nbsp;&lt;/span&gt;&lt;/span&gt;font: var(--font-m);&lt;br&gt; &lt;span style=&quot;white-space: pre;&quot;&gt;&#x9;&lt;/span&gt;background: var(--bg-color);&lt;br&gt; &lt;span style=&quot;white-space: pre;&quot;&gt;&#x9;&lt;/span&gt;color: var(--primary-color);&lt;br&gt; &lt;span style=&quot;white-space: pre;&quot;&gt;&#x9;&lt;/span&gt;min-height: 100vh;&lt;/blockquote&gt;&lt;span style=&quot;white-space: pre;&quot;&gt;&#x9;&lt;/span&gt;}" style="text;html=1;strokeColor=none;fillColor=#fff2cc;align=left;verticalAlign=middle;whiteSpace=wrap;rounded=0;" parent="1" vertex="1">
          <mxGeometry x="1505" y="608" width="230" height="114" as="geometry" />
        </mxCell>
        <mxCell id="2iayjj1OqmgtFofdx8OK-35" value="&lt;span style=&quot;white-space: pre;&quot;&gt;&#x9;&lt;/span&gt;:root { &lt;br&gt;&lt;span style=&quot;white-space: pre;&quot;&gt;&#x9;&lt;/span&gt;&lt;span style=&quot;white-space: pre;&quot;&gt;&#x9;&lt;/span&gt;--font-family-main: consolas, &quot;Times New Roman&quot;, serif; &lt;br&gt;&lt;span style=&quot;white-space: pre;&quot;&gt;&#x9;&lt;/span&gt;&lt;span style=&quot;white-space: pre;&quot;&gt;&#x9;&lt;/span&gt;--font-size-m: 16px; --font-line-m: 24px; &lt;br&gt;&lt;span style=&quot;white-space: pre;&quot;&gt;&#x9;&lt;/span&gt;&lt;span style=&quot;white-space: pre;&quot;&gt;&#x9;&lt;/span&gt;--font-m: var(--font-size-m) / var(--font-line-m) var(--font-family-main); &lt;br&gt;&lt;span style=&quot;white-space: pre;&quot;&gt;&#x9;&lt;/span&gt;&lt;span style=&quot;white-space: pre;&quot;&gt;&#x9;&lt;/span&gt;--font-size-l: 24px; --font-line-l: 32px; &lt;br&gt;&lt;span style=&quot;white-space: pre;&quot;&gt;&#x9;&lt;/span&gt;&lt;span style=&quot;white-space: pre;&quot;&gt;&#x9;&lt;/span&gt;--font-l: var(--font-size-l) / var(--font-line-l) var(--font-family-main); &lt;br&gt;&lt;span style=&quot;white-space: pre;&quot;&gt;&#x9;&lt;/span&gt;&lt;span style=&quot;white-space: pre;&quot;&gt;&#x9;&lt;/span&gt;--font-size-xl: 32px; --font-line-xl: 40px; &lt;br&gt;&lt;span style=&quot;white-space: pre;&quot;&gt;&#x9;&lt;/span&gt;&lt;span style=&quot;white-space: pre;&quot;&gt;&#x9;&lt;/span&gt;--font-xl: var(--font-size-xl) / var(--font-line-xl) var(--font-family-main); &lt;br&gt;&lt;br&gt;&lt;span style=&quot;white-space: pre;&quot;&gt;&#x9;&lt;/span&gt;&lt;span style=&quot;white-space: pre;&quot;&gt;&#x9;&lt;/span&gt;// Размеры &lt;br&gt;&lt;span style=&quot;white-space: pre;&quot;&gt;&#x9;&lt;/span&gt;&lt;span style=&quot;white-space: pre;&quot;&gt;&#x9;&lt;/span&gt;--navbar-height: 50px; &lt;br&gt;&lt;span style=&quot;white-space: pre;&quot;&gt;&#x9;&lt;/span&gt;&lt;span style=&quot;white-space: pre;&quot;&gt;&#x9;&lt;/span&gt;--sidebar-width: 300px; &lt;br&gt;&lt;span style=&quot;white-space: pre;&quot;&gt;&#x9;&lt;/span&gt;&lt;span style=&quot;white-space: pre;&quot;&gt;&#x9;&lt;/span&gt;--sidebar-width-collapsed: 80px;&lt;br&gt;&lt;span style=&quot;white-space: pre;&quot;&gt;&#x9;&lt;/span&gt;&amp;nbsp;}" style="text;html=1;strokeColor=none;fillColor=#fff2cc;align=left;verticalAlign=middle;whiteSpace=wrap;rounded=0;" parent="1" vertex="1">
          <mxGeometry x="1845" y="688" width="455" height="228" as="geometry" />
        </mxCell>
        <mxCell id="2iayjj1OqmgtFofdx8OK-36" value="global.scss" style="text;html=1;strokeColor=none;fillColor=#f8cecc;align=center;verticalAlign=middle;whiteSpace=wrap;rounded=1;" parent="1" vertex="1">
          <mxGeometry x="2010.5" y="643" width="124" height="30" as="geometry" />
        </mxCell>
        <mxCell id="2iayjj1OqmgtFofdx8OK-38" value="Получение темы" style="text;html=1;strokeColor=none;fillColor=#d5e8d4;align=center;verticalAlign=middle;whiteSpace=wrap;rounded=0;" parent="1" vertex="1">
          <mxGeometry x="21" y="-456" width="108" height="30" as="geometry" />
        </mxCell>
        <mxCell id="cvOysCxhI57CH793qs8D-2" value="ThemeContext.ts" style="text;html=1;strokeColor=none;fillColor=#f8cecc;align=center;verticalAlign=middle;whiteSpace=wrap;rounded=1;" parent="1" vertex="1">
          <mxGeometry x="1374" y="-212" width="124" height="30" as="geometry" />
        </mxCell>
        <mxCell id="cvOysCxhI57CH793qs8D-5" value="export const ThemeContext = createContext&amp;lt;ThemeContextProps&amp;gt;({})" style="text;html=1;align=center;verticalAlign=middle;whiteSpace=wrap;rounded=1;strokeColor=default;" parent="1" vertex="1">
          <mxGeometry x="1238" y="39" width="398" height="30" as="geometry" />
        </mxCell>
        <mxCell id="cvOysCxhI57CH793qs8D-9" style="edgeStyle=orthogonalEdgeStyle;shape=connector;rounded=0;orthogonalLoop=1;jettySize=auto;html=1;entryX=0.5;entryY=0;entryDx=0;entryDy=0;dashed=1;dashPattern=8 8;labelBackgroundColor=default;strokeColor=#6c8ebf;align=center;verticalAlign=middle;fontFamily=Helvetica;fontSize=11;fontColor=default;endArrow=classic;fillColor=#dae8fc;" parent="1" source="cvOysCxhI57CH793qs8D-6" target="cvOysCxhI57CH793qs8D-5" edge="1">
          <mxGeometry relative="1" as="geometry" />
        </mxCell>
        <mxCell id="cvOysCxhI57CH793qs8D-6" value="&lt;span style=&quot;white-space: pre;&quot;&gt;&#x9;&lt;/span&gt;export interface ThemeContextProps { &lt;br&gt;&lt;span style=&quot;white-space: pre;&quot;&gt;&#x9;&lt;span style=&quot;white-space: pre;&quot;&gt;&#x9;&lt;/span&gt;&lt;/span&gt;theme?: Theme; &lt;br&gt;&lt;span style=&quot;white-space: pre;&quot;&gt;&#x9;&lt;/span&gt;&lt;span style=&quot;white-space: pre;&quot;&gt;&#x9;&lt;/span&gt;setTheme?: (theme: Theme) =&amp;gt; void; &lt;br&gt;&lt;span style=&quot;white-space: pre;&quot;&gt;&#x9;&lt;/span&gt;}" style="text;html=1;align=left;verticalAlign=middle;whiteSpace=wrap;rounded=1;strokeColor=default;" parent="1" vertex="1">
          <mxGeometry x="1298" y="-57" width="276" height="68" as="geometry" />
        </mxCell>
        <mxCell id="cvOysCxhI57CH793qs8D-8" style="edgeStyle=orthogonalEdgeStyle;rounded=0;orthogonalLoop=1;jettySize=auto;html=1;entryX=0.5;entryY=0;entryDx=0;entryDy=0;fillColor=#dae8fc;strokeColor=#6c8ebf;dashed=1;dashPattern=8 8;" parent="1" source="cvOysCxhI57CH793qs8D-7" target="cvOysCxhI57CH793qs8D-6" edge="1">
          <mxGeometry relative="1" as="geometry" />
        </mxCell>
        <mxCell id="cvOysCxhI57CH793qs8D-7" value="&lt;span style=&quot;white-space: pre;&quot;&gt;&#x9;&lt;/span&gt;export enum Theme { &lt;br&gt;&lt;span style=&quot;white-space: pre;&quot;&gt;&#x9;&lt;/span&gt;&lt;span style=&quot;white-space: pre;&quot;&gt;&#x9;&lt;/span&gt;LIGHT = &#39;light&#39;, &lt;br&gt;&lt;span style=&quot;white-space: pre;&quot;&gt;&#x9;&lt;/span&gt;&lt;span style=&quot;white-space: pre;&quot;&gt;&#x9;&lt;/span&gt;DARK = &#39;dark&#39;, &lt;br&gt;&lt;span style=&quot;white-space: pre;&quot;&gt;&#x9;&lt;/span&gt;}" style="text;html=1;align=left;verticalAlign=middle;whiteSpace=wrap;rounded=1;strokeColor=default;" parent="1" vertex="1">
          <mxGeometry x="1355" y="-162" width="162" height="68" as="geometry" />
        </mxCell>
        <mxCell id="cvOysCxhI57CH793qs8D-11" value="ThemeProvider.tsx" style="text;html=1;strokeColor=none;fillColor=#f8cecc;align=center;verticalAlign=middle;whiteSpace=wrap;rounded=1;" parent="1" vertex="1">
          <mxGeometry x="922" y="-373" width="124" height="30" as="geometry" />
        </mxCell>
        <mxCell id="cvOysCxhI57CH793qs8D-17" style="edgeStyle=orthogonalEdgeStyle;shape=connector;rounded=0;orthogonalLoop=1;jettySize=auto;html=1;entryX=0.5;entryY=0;entryDx=0;entryDy=0;dashed=1;dashPattern=8 8;labelBackgroundColor=default;strokeColor=#6c8ebf;align=center;verticalAlign=middle;fontFamily=Helvetica;fontSize=11;fontColor=default;endArrow=classic;fillColor=#dae8fc;" parent="1" source="cvOysCxhI57CH793qs8D-12" target="cvOysCxhI57CH793qs8D-16" edge="1">
          <mxGeometry relative="1" as="geometry" />
        </mxCell>
        <mxCell id="cvOysCxhI57CH793qs8D-12" value="const [theme, setTheme] = useState&amp;lt;Theme&amp;gt;(defaultTheme);" style="text;html=1;align=center;verticalAlign=middle;whiteSpace=wrap;rounded=1;strokeColor=default;" parent="1" vertex="1">
          <mxGeometry x="785" y="-266" width="398" height="30" as="geometry" />
        </mxCell>
        <mxCell id="cvOysCxhI57CH793qs8D-15" style="edgeStyle=orthogonalEdgeStyle;shape=connector;rounded=0;orthogonalLoop=1;jettySize=auto;html=1;entryX=0.5;entryY=0;entryDx=0;entryDy=0;dashed=1;dashPattern=8 8;labelBackgroundColor=default;strokeColor=#6c8ebf;align=center;verticalAlign=middle;fontFamily=Helvetica;fontSize=11;fontColor=default;endArrow=classic;fillColor=#dae8fc;" parent="1" source="cvOysCxhI57CH793qs8D-13" target="cvOysCxhI57CH793qs8D-12" edge="1">
          <mxGeometry relative="1" as="geometry" />
        </mxCell>
        <mxCell id="cvOysCxhI57CH793qs8D-13" value="const defaultTheme = localStorage.getItem(LOCAL_STORAGE_THEME_KEY) as Theme || Theme.LIGHT;" style="text;html=1;align=center;verticalAlign=middle;whiteSpace=wrap;rounded=1;strokeColor=default;" parent="1" vertex="1">
          <mxGeometry x="691" y="-324" width="586" height="30" as="geometry" />
        </mxCell>
        <mxCell id="cvOysCxhI57CH793qs8D-19" style="edgeStyle=orthogonalEdgeStyle;shape=connector;rounded=0;orthogonalLoop=1;jettySize=auto;html=1;entryX=0.5;entryY=0;entryDx=0;entryDy=0;dashed=1;dashPattern=8 8;labelBackgroundColor=default;strokeColor=#6c8ebf;align=center;verticalAlign=middle;fontFamily=Helvetica;fontSize=11;fontColor=default;endArrow=classic;fillColor=#dae8fc;" parent="1" source="cvOysCxhI57CH793qs8D-16" target="cvOysCxhI57CH793qs8D-18" edge="1">
          <mxGeometry relative="1" as="geometry" />
        </mxCell>
        <mxCell id="cvOysCxhI57CH793qs8D-16" value="const defaultProps = useMemo(() =&amp;gt; ({ theme,&amp;nbsp;setTheme&amp;nbsp;&lt;span style=&quot;background-color: initial;&quot;&gt;}, [theme])&lt;/span&gt;" style="text;html=1;align=center;verticalAlign=middle;whiteSpace=wrap;rounded=1;strokeColor=default;" parent="1" vertex="1">
          <mxGeometry x="785" y="-205" width="398" height="30" as="geometry" />
        </mxCell>
        <mxCell id="cvOysCxhI57CH793qs8D-20" style="edgeStyle=orthogonalEdgeStyle;shape=connector;rounded=0;orthogonalLoop=1;jettySize=auto;html=1;entryX=0;entryY=0.5;entryDx=0;entryDy=0;dashed=1;dashPattern=8 8;labelBackgroundColor=default;strokeColor=#6c8ebf;align=center;verticalAlign=middle;fontFamily=Helvetica;fontSize=11;fontColor=default;endArrow=classic;fillColor=#dae8fc;" parent="1" source="cvOysCxhI57CH793qs8D-18" target="cvOysCxhI57CH793qs8D-7" edge="1">
          <mxGeometry relative="1" as="geometry" />
        </mxCell>
        <mxCell id="cvOysCxhI57CH793qs8D-18" value="&amp;lt;ThemeContext.Provider value={defaultProps}&amp;gt;" style="text;html=1;align=center;verticalAlign=middle;whiteSpace=wrap;rounded=1;strokeColor=default;" parent="1" vertex="1">
          <mxGeometry x="785" y="-143" width="398" height="30" as="geometry" />
        </mxCell>
        <mxCell id="cvOysCxhI57CH793qs8D-21" value="App.tsx" style="text;html=1;strokeColor=none;fillColor=#f8cecc;align=center;verticalAlign=middle;whiteSpace=wrap;rounded=1;" parent="1" vertex="1">
          <mxGeometry x="13" y="-376" width="124" height="30" as="geometry" />
        </mxCell>
        <mxCell id="cvOysCxhI57CH793qs8D-30" style="edgeStyle=orthogonalEdgeStyle;shape=connector;rounded=0;orthogonalLoop=1;jettySize=auto;html=1;entryX=0;entryY=0.5;entryDx=0;entryDy=0;dashed=1;dashPattern=8 8;labelBackgroundColor=default;strokeColor=#6c8ebf;align=center;verticalAlign=middle;fontFamily=Helvetica;fontSize=11;fontColor=default;endArrow=classic;fillColor=#dae8fc;" parent="1" source="cvOysCxhI57CH793qs8D-22" target="cvOysCxhI57CH793qs8D-29" edge="1">
          <mxGeometry relative="1" as="geometry" />
        </mxCell>
        <mxCell id="cvOysCxhI57CH793qs8D-22" value="const { theme } = useTheme();" style="text;html=1;align=center;verticalAlign=middle;whiteSpace=wrap;rounded=1;strokeColor=default;" parent="1" vertex="1">
          <mxGeometry x="-22" y="-325" width="194" height="30" as="geometry" />
        </mxCell>
        <mxCell id="cvOysCxhI57CH793qs8D-23" value="useTheme.ts" style="text;html=1;strokeColor=none;fillColor=#f8cecc;align=center;verticalAlign=middle;whiteSpace=wrap;rounded=1;" parent="1" vertex="1">
          <mxGeometry x="364" y="-376" width="124" height="30" as="geometry" />
        </mxCell>
        <mxCell id="cvOysCxhI57CH793qs8D-32" style="edgeStyle=orthogonalEdgeStyle;shape=connector;rounded=0;orthogonalLoop=1;jettySize=auto;html=1;entryX=0.5;entryY=0;entryDx=0;entryDy=0;dashed=1;dashPattern=8 8;labelBackgroundColor=default;strokeColor=#6c8ebf;align=center;verticalAlign=middle;fontFamily=Helvetica;fontSize=11;fontColor=default;endArrow=classic;fillColor=#dae8fc;" parent="1" source="cvOysCxhI57CH793qs8D-29" target="cvOysCxhI57CH793qs8D-31" edge="1">
          <mxGeometry relative="1" as="geometry" />
        </mxCell>
        <mxCell id="cvOysCxhI57CH793qs8D-34" style="edgeStyle=orthogonalEdgeStyle;shape=connector;rounded=0;orthogonalLoop=1;jettySize=auto;html=1;entryX=0;entryY=0.5;entryDx=0;entryDy=0;dashed=1;dashPattern=8 8;labelBackgroundColor=default;strokeColor=#6c8ebf;align=center;verticalAlign=middle;fontFamily=Helvetica;fontSize=11;fontColor=default;endArrow=classic;fillColor=#dae8fc;" parent="1" source="cvOysCxhI57CH793qs8D-29" target="cvOysCxhI57CH793qs8D-13" edge="1">
          <mxGeometry relative="1" as="geometry" />
        </mxCell>
        <mxCell id="cvOysCxhI57CH793qs8D-29" value="const { theme, setTheme } = useContext(ThemeContext);" style="text;html=1;align=center;verticalAlign=middle;whiteSpace=wrap;rounded=1;strokeColor=default;" parent="1" vertex="1">
          <mxGeometry x="256" y="-325" width="340" height="30" as="geometry" />
        </mxCell>
        <mxCell id="cvOysCxhI57CH793qs8D-33" style="edgeStyle=orthogonalEdgeStyle;shape=connector;rounded=0;orthogonalLoop=1;jettySize=auto;html=1;entryX=0.5;entryY=1;entryDx=0;entryDy=0;dashed=1;dashPattern=1 1;labelBackgroundColor=default;strokeColor=#6c8ebf;align=center;verticalAlign=middle;fontFamily=Helvetica;fontSize=11;fontColor=default;endArrow=classic;fillColor=#dae8fc;" parent="1" source="cvOysCxhI57CH793qs8D-31" target="cvOysCxhI57CH793qs8D-22" edge="1">
          <mxGeometry relative="1" as="geometry" />
        </mxCell>
        <mxCell id="cvOysCxhI57CH793qs8D-31" value="return { theme, toggleTheme, };" style="text;html=1;align=center;verticalAlign=middle;whiteSpace=wrap;rounded=1;strokeColor=default;" parent="1" vertex="1">
          <mxGeometry x="317" y="-262" width="218" height="30" as="geometry" />
        </mxCell>
      </root>
    </mxGraphModel>
  </diagram>
  <diagram id="Jh07duGecE-oMZQGJs3j" name="Redux-toolkit">
    <mxGraphModel dx="1434" dy="755" grid="0" gridSize="10" guides="1" tooltips="1" connect="1" arrows="1" fold="1" page="0" pageScale="1" pageWidth="827" pageHeight="1169" math="0" shadow="0">
      <root>
        <mxCell id="0" />
        <mxCell id="1" parent="0" />
      </root>
    </mxGraphModel>
  </diagram>
</mxfile>
